<svg viewBox="0 0 64 64" xmlns="http://www.w3.org/2000/svg" width="65" height="65" fill="none"><circle cx="32.25" cy="32.875" r="32" fill="#FFFFFF"></circle><path stroke="#535353" stroke-linejoin="round" d="m21.554 18.97.133 1.655 1.676-.34-1.529.635.835 1.484-1.078-1.255-1.152 1.255.864-1.417-1.551-.702 1.61.377.192-1.691ZM26.893 18.97l.14 1.655 1.67-.34-1.529.635.842 1.484-1.085-1.255-1.152 1.255.863-1.417-1.55-.702 1.61.377.191-1.691ZM32.239 18.97l.133 1.655 1.669-.34-1.529.635.842 1.484-1.078-1.255-1.152 1.255.856-1.417-1.55-.702 1.617.377.192-1.691ZM37.578 18.97l.133 1.655 1.676-.34-1.528.635.834 1.484-1.078-1.255-1.152 1.255.864-1.417-1.55-.702 1.61.377.191-1.691ZM42.917 18.97l.14 1.655 1.67-.34-1.53.635.835 1.484-1.078-1.255-1.152 1.255.864-1.417-1.55-.702 1.609.377.192-1.691ZM25.025 45.572v-18.63c.082-.598.569-1.063 1.16-1.063h12.102c.584 0 1.078.465 1.16 1.056v18.637M24.315 28.848H21.82c-.643 0-1.175.598-1.175 1.321l.665 15.382M40.155 28.848h2.496c.642 0 1.174.598 1.174 1.321l-.664 15.382M27.232 28.855h10.006M27.233 31.602H37.24M27.233 34.355H37.24M27.233 37.11H37.24M27.233 39.857H37.24M27.233 42.611H37.24M19.679 45.572h25.12"></path></svg>