<svg viewBox="0 0 64 64" xmlns="http://www.w3.org/2000/svg" width="65" height="65" fill="none"><circle cx="32.5" cy="32.875" r="32" fill="#FFFFFF"></circle><path stroke="#535353" stroke-linejoin="round" d="M31 33h4l2.667 13.333h-9.333L31.001 33ZM40.334 46.332H25.667"></path><circle cx="33.001" cy="30.333" r="2.667" stroke="#535353" stroke-linejoin="round"></circle><circle cx="44.334" cy="28.332" r="2" stroke="#535353" stroke-linejoin="round"></circle><circle cx="42.334" cy="37.666" r="2" stroke="#535353" stroke-linejoin="round"></circle><circle cx="33" cy="21.666" r="2" stroke="#535353" stroke-linejoin="round"></circle><circle cx="21.667" cy="28.332" r="2" stroke="#535353" stroke-linejoin="round"></circle><circle cx="23.667" cy="37.666" r="2" stroke="#535353" stroke-linejoin="round"></circle><path stroke="#535353" d="m35 22.332 7.333 5.333M31 22.332l-7.333 5.333M44.08 30.332 43 35.665M22.334 30.332l1.08 5.333M40.334 38.332h-4M29.667 38.332h-4M33 27.666v-3.775M35.667 30.333l6.667-.997M30.334 30.333l-6.667-.997"></path></svg>