<svg viewBox="0 0 64 64" xmlns="http://www.w3.org/2000/svg" width="65" height="65" fill="none"><circle cx="32.75" cy="32.875" r="32" fill="#FFFFFF"></circle><path stroke="#535353" stroke-linejoin="round" d="m19.667 46.208 1.606-1.606a1.5 1.5 0 0 1 2.121 0l.546.545a1.5 1.5 0 0 0 2.121 0l.545-.545a1.5 1.5 0 0 1 2.122 0l.545.545a1.5 1.5 0 0 0 2.121 0l.546-.545a1.5 1.5 0 0 1 2.121 0l.545.545a1.5 1.5 0 0 0 2.122 0l.545-.545a1.5 1.5 0 0 1 2.121 0l.546.545a1.5 1.5 0 0 0 2.121 0l.545-.545a1.5 1.5 0 0 1 2.122 0l1.606 1.606M19.667 41.542l1.606-1.606a1.5 1.5 0 0 1 2.121 0l.546.545a1.5 1.5 0 0 0 2.121 0l.545-.545a1.5 1.5 0 0 1 2.122 0l.545.545a1.5 1.5 0 0 0 2.121 0l.546-.545a1.5 1.5 0 0 1 2.121 0l.545.545a1.5 1.5 0 0 0 2.122 0l.545-.545a1.5 1.5 0 0 1 2.121 0l.546.545a1.5 1.5 0 0 0 2.121 0l.545-.545a1.5 1.5 0 0 1 2.122 0l1.606 1.606"></path><path stroke="#535353" stroke-linejoin="round" d="m22.334 39.54 2.114-4.227a2 2 0 0 1 1.789-1.106h13.528a2 2 0 0 1 1.788 1.106l2.114 4.227M29 22.207a6.667 6.667 0 0 0-6.666 6.667l4.167-1.111 2.5 1.11 2.5-1.11 4.166 1.11a6.667 6.667 0 0 0-6.666-6.666ZM29 28.875v5.333"></path><circle cx="43" cy="22.874" r="3.333" stroke="#535353"></circle></svg>